<svg xmlns="http://www.w3.org/2000/svg" width="19.047" height="20.206" viewBox="0 0 19.047 20.206">
  <g id="noun-dashboard-5024089" transform="translate(-104.664 -19.352)">
    <path id="Path_6071" data-name="Path 6071" d="M111.659,19.6h-5.373a1.373,1.373,0,0,0-1.371,1.371v8.218a1.373,1.373,0,0,0,1.371,1.371h5.373a1.373,1.373,0,0,0,1.371-1.371V20.973a1.373,1.373,0,0,0-1.371-1.371Zm.736,9.59a.737.737,0,0,1-.736.736h-5.373a.737.737,0,0,1-.736-.736V20.973a.737.737,0,0,1,.736-.736h5.373a.737.737,0,0,1,.736.736Z" fill="#66707e" stroke="#66707e" stroke-width="0.5"/>
    <path id="Path_6072" data-name="Path 6072" d="M111.659,359.31h-5.373a1.373,1.373,0,0,0-1.371,1.371v4.109a1.373,1.373,0,0,0,1.371,1.371h5.373a1.373,1.373,0,0,0,1.371-1.371v-4.109A1.373,1.373,0,0,0,111.659,359.31Zm.736,5.48a.737.737,0,0,1-.736.736h-5.373a.737.737,0,0,1-.736-.736v-4.109a.737.737,0,0,1,.736-.736h5.373a.737.737,0,0,1,.736.736Z" transform="translate(0 -326.854)" fill="#66707e" stroke="#66707e" stroke-width="0.5"/>
    <path id="Path_6073" data-name="Path 6073" d="M387.329,250.71h-5.373a1.373,1.373,0,0,0-1.371,1.371V260.3a1.373,1.373,0,0,0,1.371,1.371h5.373A1.373,1.373,0,0,0,388.7,260.3v-8.218A1.373,1.373,0,0,0,387.329,250.71Zm.736,9.59a.737.737,0,0,1-.736.736h-5.373a.737.737,0,0,1-.736-.736v-8.218a.737.737,0,0,1,.736-.736h5.373a.737.737,0,0,1,.736.736Z" transform="translate(-265.239 -222.363)" fill="#66707e" stroke="#66707e" stroke-width="0.5"/>
    <path id="Path_6074" data-name="Path 6074" d="M387.329,19.6h-5.373a1.373,1.373,0,0,0-1.371,1.371v4.109a1.373,1.373,0,0,0,1.371,1.371h5.373a1.373,1.373,0,0,0,1.371-1.371V20.973a1.373,1.373,0,0,0-1.371-1.371Zm.736,5.48a.737.737,0,0,1-.736.736h-5.373a.737.737,0,0,1-.736-.736V20.973a.737.737,0,0,1,.736-.736h5.373a.737.737,0,0,1,.736.736Z" transform="translate(-265.239)" fill="#66707e" stroke="#66707e" stroke-width="0.5"/>
  </g>
</svg>
