<svg id="noun-edit-profile-4174212" xmlns="http://www.w3.org/2000/svg" width="16.474" height="16.124" viewBox="0 0 16.474 16.124">
  <path id="Path_7266" data-name="Path 7266" d="M222.781,35a4.031,4.031,0,1,0,4.031,4.031A4.033,4.033,0,0,0,222.781,35Zm0,1.152a2.879,2.879,0,1,1-2.879,2.879A2.88,2.88,0,0,1,222.781,36.152Z" transform="translate(-214.719 -35)" fill="#393939" fill-rule="evenodd"/>
  <path id="Path_7267" data-name="Path 7267" d="M97.4,320.758h7.2a.576.576,0,0,1,0,1.152H96.826a.576.576,0,0,1-.576-.576v-1.152A5.182,5.182,0,0,1,101.432,315H104.6a.576.576,0,1,1,0,1.152h-3.167a4.031,4.031,0,0,0-4.031,4.031Z" transform="translate(-96.25 -305.787)" fill="#393939" fill-rule="evenodd"/>
  <path id="Path_7268" data-name="Path 7268" d="M419.423,289.213a.576.576,0,0,0,0-.814l-1.439-1.439a.576.576,0,0,0-.814,0l-3.377,3.377a.576.576,0,0,0-.168.382l-.066,1.5a.576.576,0,0,0,.6.6l1.5-.065a.576.576,0,0,0,.382-.168l3.377-3.377Zm-4.658,1.78-.028.653.653-.029,2.811-2.811-.624-.625-2.812,2.812Z" transform="translate(-403.118 -278.507)" fill="#393939" fill-rule="evenodd"/>
  <path id="Path_7269" data-name="Path 7269" d="M385.576,491.192h5.182a.576.576,0,0,0,0-1.152h-5.182a.576.576,0,1,0,0,1.152Z" transform="translate(-375.499 -475.068)" fill="#393939" fill-rule="evenodd"/>
</svg>
