<svg xmlns="http://www.w3.org/2000/svg" width="20.077" height="21.453" viewBox="0 0 20.077 21.453">
  <g id="noun-event-1433141" transform="translate(-169.877 -87.52)">
    <path id="Path_7265" data-name="Path 7265" d="M187.769,90.1H184.8V88.144a.624.624,0,1,0-1.248,0V90.1h-7.282V88.144a.624.624,0,1,0-1.248,0V90.1h-2.965a2.187,2.187,0,0,0-2.185,2.185v14.507a2.187,2.187,0,0,0,2.185,2.185H187.77a2.187,2.187,0,0,0,2.185-2.185V92.282a2.187,2.187,0,0,0-2.185-2.185Zm.936,16.691a.938.938,0,0,1-.936.936H172.061a.938.938,0,0,1-.936-.936V98.137h17.581Zm0-9.9H171.125V92.282a.938.938,0,0,1,.936-.936h2.965v2.1a.624.624,0,1,0,1.248,0v-2.1h7.282v2.1a.624.624,0,1,0,1.248,0v-2.1h2.965a.938.938,0,0,1,.936.936Zm-10.949,5.819a.624.624,0,0,0,.624.624h3.068a.624.624,0,1,0,0-1.248h-3.068A.624.624,0,0,0,177.757,102.708Zm-2.5-2.5h3.068a.624.624,0,1,0,0-1.248H175.26a.624.624,0,1,0,0,1.248Zm5.618,5.618a.624.624,0,0,0,.624.624h3.068a.624.624,0,1,0,0-1.248H181.5A.624.624,0,0,0,180.878,105.829Z" fill="#66707e"/>
  </g>
</svg>
