<svg xmlns="http://www.w3.org/2000/svg" width="21.923" height="15.291" viewBox="0 0 21.923 15.291">
  <g id="Group_2936" data-name="Group 2936" transform="translate(0.112 0.582)">
    <g id="passwordshow" transform="translate(0 0)">
      <path id="Path_4317" data-name="Path 4317" d="M103.194,112.732a1.413,1.413,0,0,0,0-1.321c-.01-.02-3.394-6.415-10.686-6.415s-10.675,6.395-10.686,6.415a1.413,1.413,0,0,0,0,1.321c.01.02,3.394,6.415,10.686,6.415S103.184,112.753,103.194,112.732Zm-.834-.44s-3.119,5.912-9.851,5.912-9.851-5.912-9.851-5.912a.471.471,0,0,1,0-.441s3.119-5.912,9.851-5.912,9.851,5.912,9.851,5.912A.471.471,0,0,1,102.36,112.292Z" transform="translate(-81.658 -104.996)" fill="#c7cbd1" stroke="#c7cbd1" stroke-width="0.2" fill-rule="evenodd"/>
      <path id="Path_4318" data-name="Path 4318" d="M249.245,175a4.245,4.245,0,1,0,4.245,4.245A4.248,4.248,0,0,0,249.245,175Zm0,.943a3.3,3.3,0,1,1-3.3,3.3A3.3,3.3,0,0,1,249.245,175.943Z" transform="translate(-238.396 -172.17)" fill="#c7cbd1" stroke="#c7cbd1" stroke-width="0.2" fill-rule="evenodd"/>
      <path id="Path_4319" data-name="Path 4319" d="M292.611,224.027a1.416,1.416,0,0,1,1.415-1.415.472.472,0,1,0,0-.943,2.359,2.359,0,0,0-2.359,2.359.472.472,0,1,0,.943,0Z" transform="translate(-283.177 -216.951)" fill="#c7cbd1" stroke="#c7cbd1" stroke-width="0.2" fill-rule="evenodd"/>
    </g>
    <line id="Line_1" data-name="Line 1" x2="17.387" y2="14.127" transform="translate(2.156 0)" fill="none" stroke="#c7cbd1" stroke-width="1.5"/>
  </g>
</svg>
