<svg xmlns="http://www.w3.org/2000/svg" width="17.302" height="17.301" viewBox="0 0 17.302 17.301">
  <g id="noun-landmark-5399358" transform="translate(0 0)">
    <path id="Path_7272" data-name="Path 7272" d="M122.233,248.436l-.618-1.236a.619.619,0,0,0-.276-.276l-2.472-1.236a.62.62,0,0,0-.276-.065h-1.708l-1.105-.553a.618.618,0,1,0-.553,1.105l1.236.618a.617.617,0,0,0,.276.065h1.708l2.157,1.078.249.5-.683.341a.619.619,0,0,0-.276.276l-.618,1.236a.618.618,0,0,0,.116.713l.8.8-.552.552-2.132-.533a.613.613,0,0,0-.52.1l-2.236,1.677-1.284-.32,1.3-1.728a.618.618,0,0,0-.3-.957l-1.715-.572-.515-.515a.618.618,0,0,0-.874,0l-.966.965-1.491-.5a.623.623,0,0,0-.2-.032H107l-.552-.276.227-.454,1.249-.416.348.348a.618.618,0,0,0,.437.181h1.236a.618.618,0,0,0,.618-.618v-1.236a.617.617,0,0,0-.065-.276l-.017-.034,1.168.292a.618.618,0,1,0,.3-1.2l-2.472-.618a.618.618,0,0,0-.7.876l.553,1.105v.472h-.362l-.437-.437a.614.614,0,0,0-.632-.149l-1.854.618a.616.616,0,0,0-.357.309l-.618,1.236a.618.618,0,0,0,.276.829l1.236.618a.616.616,0,0,0,.276.065H108.6l1.758.586a.616.616,0,0,0,.632-.149l.8-.8.181.181a.62.62,0,0,0,.241.149l1.041.347-1.339,1.786a.617.617,0,0,0,.344.97l2.472.618a.612.612,0,0,0,.15.018.619.619,0,0,0,.37-.124l2.236-1.677,2.187.546a.617.617,0,0,0,.587-.162l1.236-1.236a.618.618,0,0,0,0-.874l-.921-.921.326-.653,1.052-.526a.618.618,0,0,0,.276-.829Z" transform="translate(-104.997 -237.59)" fill="#393939"/>
    <path id="Path_7273" data-name="Path 7273" d="M315.619,37.3v8.823a.618.618,0,1,0,1.236,0V41.8h5.561a.618.618,0,0,0,.514-.961l-1.007-1.511,1.007-1.511a.618.618,0,0,0-.514-.961H317.3a1.221,1.221,0,0,0,.172-.618,1.236,1.236,0,1,0-1.854,1.064Zm5.047,2.368.6.893h-4.407V38.089h4.407l-.6.893A.618.618,0,0,0,320.666,39.668Z" transform="translate(-307.586 -35)" fill="#393939"/>
  </g>
</svg>
