<svg xmlns="http://www.w3.org/2000/svg" width="17.197" height="18.979" viewBox="0 0 17.197 18.979">
  <g id="noun-logout-3324829" transform="translate(-175.695 -87.505)">
    <path id="Path_6086" data-name="Path 6086" d="M192.892,97.865a8.6,8.6,0,1,1-11.832-7.946.863.863,0,0,1,.647,1.6,6.872,6.872,0,1,0,5.18,0,.863.863,0,1,1,.647-1.6,8.547,8.547,0,0,1,5.357,7.947Zm-8.6-.561a.863.863,0,0,0,.863-.863V88.369a.863.863,0,1,0-1.727,0V96.44a.863.863,0,0,0,.863.863Z" transform="translate(0 0)" fill="#66707e"/>
  </g>
</svg>
