<svg xmlns="http://www.w3.org/2000/svg" width="26.341" height="22.637" viewBox="0 0 26.341 22.637">
  <g id="noun-layer-1787093" transform="translate(-108.912 -72.814)">
    <path id="Path_7264" data-name="Path 7264" d="M122,72.817a.618.618,0,0,0-.2.067l-12.543,6.424a.612.612,0,0,0,0,1.09L121.8,86.823a.613.613,0,0,0,.554,0L134.9,80.4a.612.612,0,0,0,0-1.09l-12.543-6.424a.613.613,0,0,0-.354-.067Zm.076,1.3,11.2,5.736-11.2,5.736-11.2-5.736Zm-12.571,9.7h0a.612.612,0,0,0-.239,1.166l12.543,6.119h0a.612.612,0,0,0,.535,0l12.543-6.119a.612.612,0,1,0-.535-1.1l-12.275,5.985L109.8,83.888a.611.611,0,0,0-.3-.067Zm0,4.283h0a.612.612,0,0,0-.239,1.166l12.543,6.119h0a.611.611,0,0,0,.535,0l12.543-6.119a.612.612,0,1,0-.535-1.1l-12.275,5.985L109.8,88.171a.614.614,0,0,0-.3-.067Z" transform="translate(0 0)" fill="#66707e"/>
  </g>
</svg>
