<svg xmlns="http://www.w3.org/2000/svg" width="22.917" height="18.541" viewBox="0 0 22.917 18.541">
  <path id="noun-member-4201625" d="M112.211,75.793a4.1,4.1,0,0,0-1.937,7.739,6.448,6.448,0,0,0-3.629,2.832,6.475,6.475,0,0,0-1.966-1.009,4.155,4.155,0,1,0-3.882,0,6.4,6.4,0,0,0-4.53,6.1v1.991a.387.387,0,0,0,.385.388h12.172a.387.387,0,0,0,.388-.388V92.011H118.3a.387.387,0,0,0,.388-.388V89.632a6.4,6.4,0,0,0-4.536-6.1,4.1,4.1,0,0,0-1.938-7.738Zm0,.773a3.336,3.336,0,1,1-3.384,3.336A3.355,3.355,0,0,1,112.211,76.566Zm-9.473,1.823a3.336,3.336,0,1,1-3.384,3.336A3.355,3.355,0,0,1,102.738,78.389Zm9.473,5.624a5.639,5.639,0,0,1,5.7,5.618v1.606H109.2a6.326,6.326,0,0,0-1.955-4.37,5.694,5.694,0,0,1,4.966-2.854Zm-9.473,1.823a5.639,5.639,0,0,1,5.7,5.618v1.606H97.04V91.455a5.637,5.637,0,0,1,5.7-5.618Z" transform="translate(-96.017 -75.543)" fill="#66707e" stroke="#66707e" stroke-width="0.5"/>
</svg>
