<svg xmlns="http://www.w3.org/2000/svg" width="22.61" height="27.742" viewBox="0 0 22.61 27.742">
  <path id="Path_6070" data-name="Path 6070" d="M170.14,47.132l-1.12-1.786a4.565,4.565,0,0,1-.605-1.877L167.93,37.2a8.824,8.824,0,0,0-6.054-7.6,2.366,2.366,0,0,0-4.48,0,8.824,8.824,0,0,0-6.054,7.6l-.484,6.266a5.065,5.065,0,0,1-.605,1.877l-1.12,1.786a2.61,2.61,0,0,0-.272,2.694,2.645,2.645,0,0,0,2.452,1.181h16.648a2.645,2.645,0,0,0,2.452-1.181,2.609,2.609,0,0,0-.272-2.694Zm-.787,2.119a1.548,1.548,0,0,1-1.392.545H151.282a1.55,1.55,0,0,1-1.393-.545,1.6,1.6,0,0,1,.272-1.483l1.12-1.786a6.331,6.331,0,0,0,.787-2.422l.484-6.266a7.749,7.749,0,0,1,5.509-6.659.586.586,0,0,0,.424-.484,1.174,1.174,0,0,1,2.3,0,.587.587,0,0,0,.424.484,7.748,7.748,0,0,1,5.509,6.659l.484,6.266a6.337,6.337,0,0,0,.787,2.422l1.12,1.786a1.483,1.483,0,0,1,.242,1.483Zm-6.326,3.269c-.151.272-1.634,2.724-3.39,2.724-1.725,0-3.239-2.452-3.39-2.724a.6.6,0,1,1,1.029-.605c.424.7,1.544,2.119,2.361,2.119.848,0,1.967-1.423,2.361-2.119a.587.587,0,0,1,.817-.212.57.57,0,0,1,.212.817Z" transform="translate(-148.331 -27.752)" fill="#66707e" stroke="#66707e" stroke-width="0.5"/>
</svg>
