<svg xmlns="http://www.w3.org/2000/svg" width="17.864" height="24.288" viewBox="0 0 17.864 24.288">
  <g id="noun-clipboard-597266" transform="translate(-245.324 -136.833)">
    <path id="Path_6077" data-name="Path 6077" d="M262.164,181.243V198.5a.683.683,0,0,1-.725.682H247.027a.689.689,0,0,1-.67-.762V181.438c0-.079-.011-.192,0-.253a.694.694,0,0,1,.553-.6,1.712,1.712,0,0,1,.346-.009h2.608l-.487-.487v.792c0,.255-.076.722.077.949.264.391.686.32,1.092.32h7.527c.411,0,.949.056,1.058-.486a4.3,4.3,0,0,0,.017-.829v-.746l-.487.487h2.811a.679.679,0,0,1,.694.669.487.487,0,0,0,.974,0,1.664,1.664,0,0,0-1.326-1.61,5.117,5.117,0,0,0-.945-.032h-2.208a.492.492,0,0,0-.487.487v1.38c0,.129-.029,0,.029-.09l.175-.175c.077-.052.221-.029.108-.029h-8.461c-.1,0,.051-.02.122.029l.175.175c.052.077.029.218.029.109v-1.4a.492.492,0,0,0-.487-.487H247.28a2.306,2.306,0,0,0-.806.1,1.681,1.681,0,0,0-1.091,1.624v16.071a3.81,3.81,0,0,0,.256,2,1.721,1.721,0,0,0,1.525.763h14a2.5,2.5,0,0,0,.879-.1,1.681,1.681,0,0,0,1.091-1.624v-17.2a.487.487,0,0,0-.973,0Z" transform="translate(0 -39.088)" fill="#66707e" stroke="#66707e" stroke-width="0.1"/>
    <path id="Path_6078" data-name="Path 6078" d="M301.767,138.971h-2.729l.487.487a3.249,3.249,0,0,0-.232-1.487,2.028,2.028,0,0,0-3.6.026,3.085,3.085,0,0,0-.219,1.462l.487-.487h-2.725a.626.626,0,0,0-.619.616v2.6c0,.329.026.757.436.839a4.387,4.387,0,0,0,.86.027h7.839a.632.632,0,0,0,.636-.649v-2.624c0-.347-.078-.715-.486-.8a.5.5,0,0,0-.6.34.489.489,0,0,0,.34.6l-.025-.012-.175-.175c-.046-.069-.029-.214-.029-.131v2.8c0,.1-.02-.048.029-.121l.175-.175c.078-.052.221-.029.108-.029H293.26c-.1,0,.051-.02.122.029l.175.175c.046.069.029.215.029.131v-2.8c0-.1.02.048-.029.121l-.175.175c-.069.046-.215.029-.13.029h2.7a.492.492,0,0,0,.487-.487,3.269,3.269,0,0,1,.046-.856,1.056,1.056,0,0,1,1.994-.076,2.306,2.306,0,0,1,.069.932.492.492,0,0,0,.487.487h2.729a.487.487,0,0,0,0-.973Z" transform="translate(-43.236)" fill="#66707e" stroke="#66707e" stroke-width="0.1"/>
    <path id="Path_6079" data-name="Path 6079" d="M342.8,153.363h.021l-.129-.017a.277.277,0,0,1,.059.016l-.116-.049a.186.186,0,0,1,.034.02l-.1-.076a.277.277,0,0,1,.042.042l-.076-.1a.2.2,0,0,1,.02.034l-.049-.116a.274.274,0,0,1,.016.059c-.006-.043-.012-.086-.017-.129a.179.179,0,0,1,0,.042c.006-.043.012-.086.017-.129a.279.279,0,0,1-.016.059l.049-.116a.183.183,0,0,1-.02.034l.076-.1a.277.277,0,0,1-.042.042l.1-.076a.176.176,0,0,1-.034.02l.116-.049a.274.274,0,0,1-.059.016l.129-.017a.179.179,0,0,1-.042,0l.129.017a.28.28,0,0,1-.059-.016l.116.049a.2.2,0,0,1-.034-.02l.1.076a.276.276,0,0,1-.042-.042l.076.1a.174.174,0,0,1-.02-.034l.049.116a.274.274,0,0,1-.016-.059c.006.043.012.086.017.129a.225.225,0,0,1,0-.042c-.006.043-.012.086-.017.129a.279.279,0,0,1,.016-.059l-.049.116a.205.205,0,0,1,.02-.034l-.076.1a.275.275,0,0,1,.042-.042l-.1.076a.2.2,0,0,1,.034-.02l-.116.049a.272.272,0,0,1,.059-.016l-.129.017h.021a.487.487,0,0,0,0-.974.679.679,0,0,0-.488,1.153.676.676,0,0,0,.487.206.7.7,0,0,0,.473-.192.676.676,0,0,0,.206-.487.7.7,0,0,0-.192-.473.676.676,0,0,0-.487-.206.489.489,0,0,0-.487.487A.494.494,0,0,0,342.8,153.363Z" transform="translate(-88.543 -14.189)" fill="#66707e" stroke="#66707e" stroke-width="0.1"/>
    <path id="Path_6080" data-name="Path 6080" d="M342.6,153.056v.021c.006-.043.012-.086.017-.129a.283.283,0,0,1-.016.059l.049-.116a.185.185,0,0,1-.02.034l.076-.1a.276.276,0,0,1-.042.042l.1-.076a.176.176,0,0,1-.034.02l.116-.049a.275.275,0,0,1-.059.016l.129-.017a.177.177,0,0,1-.042,0l.129.017a.28.28,0,0,1-.059-.016l.116.049a.2.2,0,0,1-.034-.02l.1.076a.274.274,0,0,1-.042-.042l.076.1a.178.178,0,0,1-.02-.034l.049.116a.3.3,0,0,1-.016-.059c.006.043.012.086.018.129a.176.176,0,0,1,0-.042c-.006.043-.012.086-.018.13a.261.261,0,0,1,.016-.059l-.049.116a.2.2,0,0,1,.02-.034l-.076.1a.274.274,0,0,1,.042-.042l-.1.076a.2.2,0,0,1,.034-.02l-.116.049a.28.28,0,0,1,.059-.016l-.129.017a.179.179,0,0,1,.042,0l-.129-.017a.28.28,0,0,1,.059.016l-.116-.049a.187.187,0,0,1,.034.02l-.1-.076a.277.277,0,0,1,.042.042l-.076-.1a.2.2,0,0,1,.02.034l-.049-.116a.278.278,0,0,1,.016.059c-.006-.043-.012-.086-.017-.13v.021a.487.487,0,1,0,.974,0,.679.679,0,0,0-1.153-.487.676.676,0,0,0-.206.487.7.7,0,0,0,.192.473.676.676,0,0,0,.487.206.7.7,0,0,0,.473-.192.677.677,0,0,0,.206-.487.487.487,0,0,0-.973,0Z" transform="translate(-88.634 -14.177)" fill="#66707e" stroke="#66707e" stroke-width="0.1"/>
    <path id="Path_6081" data-name="Path 6081" d="M343.782,154.356s0,.005,0,.008c.006-.043.012-.086.017-.129a.1.1,0,0,1-.006.022l.049-.116a.062.062,0,0,1-.008.013l.076-.1a.1.1,0,0,1-.016.016l.1-.076-.013.008.116-.049-.022.006.129-.017h-.016l.13.017-.022-.006.116.049-.013-.008.1.076a.1.1,0,0,1-.016-.016l.076.1a.063.063,0,0,1-.008-.013l.049.116a.1.1,0,0,1-.006-.022c.006.043.012.086.017.129a.06.06,0,0,1,0-.016c-.006.043-.012.086-.017.13a.1.1,0,0,1,.006-.022l-.049.116a.064.064,0,0,1,.008-.013l-.076.1a.116.116,0,0,1,.016-.016l-.1.076.013-.008-.116.049.022-.006-.13.017h.016l-.129-.017.022.006-.116-.049.013.008-.1-.076a.114.114,0,0,1,.016.016l-.076-.1a.063.063,0,0,1,.008.013l-.049-.116a.1.1,0,0,1,.006.022c-.006-.043-.012-.086-.017-.13a.061.061,0,0,0,0,.008.505.505,0,0,0,.142.344.488.488,0,0,0,.689,0,.476.476,0,0,0,.142-.344.519.519,0,0,0-.024-.159.594.594,0,0,0-.137-.233.391.391,0,0,0-.122-.094.573.573,0,0,0-.276-.073.4.4,0,0,0-.159.024.594.594,0,0,0-.233.137.392.392,0,0,0-.094.122.573.573,0,0,0-.073.276.4.4,0,0,0,.024.159.59.59,0,0,0,.137.233.391.391,0,0,0,.122.094.573.573,0,0,0,.276.073.393.393,0,0,0,.159-.024.59.59,0,0,0,.233-.137.391.391,0,0,0,.094-.122.577.577,0,0,0,.073-.276.478.478,0,0,0-.142-.344.488.488,0,0,0-.689,0A.505.505,0,0,0,343.782,154.356Z" transform="translate(-89.935 -15.477)" fill="#66707e" stroke="#66707e" stroke-width="0.1"/>
    <path id="Path_6082" data-name="Path 6082" d="M280.1,248.54H291.13a.487.487,0,0,0,0-.974H280.1A.487.487,0,0,0,280.1,248.54Z" transform="translate(-31.354 -101.297)" fill="#66707e" stroke="#66707e" stroke-width="0.1"/>
    <path id="Path_6083" data-name="Path 6083" d="M280.1,299.92H291.13a.487.487,0,0,0,0-.974H280.1A.487.487,0,0,0,280.1,299.92Z" transform="translate(-31.354 -148.32)" fill="#66707e" stroke="#66707e" stroke-width="0.1"/>
    <path id="Path_6084" data-name="Path 6084" d="M280.1,351.29h2.362a.487.487,0,0,0,0-.974H280.1A.487.487,0,0,0,280.1,351.29Z" transform="translate(-31.354 -195.335)" fill="#66707e" stroke="#66707e" stroke-width="0.1"/>
    <path id="Path_6085" data-name="Path 6085" d="M346.6,332.66l-4,4h.689l-1.841-1.841a.487.487,0,0,0-.689.689l1.841,1.841a.492.492,0,0,0,.689,0l4-4A.487.487,0,0,0,346.6,332.66Z" transform="translate(-87.169 -179.044)" fill="#66707e" stroke="#66707e" stroke-width="0.1"/>
  </g>
</svg>
