<svg xmlns="http://www.w3.org/2000/svg" width="19.022" height="17.007" viewBox="0 0 19.022 17.007">
  <g id="noun-user-1439439" transform="translate(0.25 0.25)">
    <path id="Path_7270" data-name="Path 7270" d="M158.69,100.8a4.863,4.863,0,0,0-3.079.75c-.825.647-1.306,1.807-1.306,3.756a6.589,6.589,0,0,0,1.531,3.949c.156.2.317.383.484.556l-.927,1.395-1.193.959a5.2,5.2,0,0,0-4.747,4.884v.258h16.459v-.516H150a4.7,4.7,0,0,1,4.207-4.111l1.967,2.217.185.2,2.329-2.329,2.329,2.329.186-.2,1.975-2.217a4.724,4.724,0,0,1,4.28,4.369v.258h.516v-.258a5.24,5.24,0,0,0-4.8-4.884l-1.193-.959-.927-1.395c.167-.173.327-.359.484-.556a6.589,6.589,0,0,0,1.531-3.949c0-1.949-.48-3.109-1.306-3.756a4.863,4.863,0,0,0-3.079-.75Zm0,.516a4.44,4.44,0,0,1,2.757.637,3.138,3.138,0,0,1,1.04,2.2,4.375,4.375,0,0,0-.475-.572,2.191,2.191,0,0,0-1.515-.717,2.572,2.572,0,0,0-1.048.274,2.349,2.349,0,0,1-.75.242h-.016a2.349,2.349,0,0,1-.749-.242,2.572,2.572,0,0,0-1.048-.274,2.191,2.191,0,0,0-1.515.717,4.374,4.374,0,0,0-.476.572,3.139,3.139,0,0,1,1.04-2.2,4.44,4.44,0,0,1,2.757-.637Zm-1.805,2.063a2.146,2.146,0,0,1,.846.226,2.5,2.5,0,0,0,.951.29h.016a2.5,2.5,0,0,0,.951-.29,2.146,2.146,0,0,1,.846-.226,1.682,1.682,0,0,1,1.153.564,4.927,4.927,0,0,1,.911,1.346v.016a6.135,6.135,0,0,1-1.419,3.627,4,4,0,0,1-2.45,1.669,4,4,0,0,1-2.45-1.669,6.135,6.135,0,0,1-1.419-3.627v-.016a4.929,4.929,0,0,1,.911-1.346,1.682,1.682,0,0,1,1.153-.564Zm-.177,6.794a2.556,2.556,0,0,0,3.966,0l.709,1.064-2.692.895L156,111.238Zm-1.056,1.483,2.563.854-1.838,1.838-1.693-1.91Zm6.077,0,.967.782L161,114.349l-1.838-1.838Z" transform="translate(-149.453 -100.8)" fill="#393939" stroke="#464646" stroke-linecap="square" stroke-width="0.5"/>
  </g>
</svg>
